<?xml version="1.0" encoding="utf-8"?>
<!-- Generator: Adobe Illustrator 26.0.3, SVG Export Plug-In . SVG Version: 6.00 Build 0)  -->
<svg version="1.1" id="Layer_1" xmlns="http://www.w3.org/2000/svg" xmlns:xlink="http://www.w3.org/1999/xlink" x="0px" y="0px"
	 viewBox="0 0 491.9 104.5" style="enable-background:new 0 0 491.9 104.5;" xml:space="preserve">
<style type="text/css">
	.st0{fill:#789D4A;}
	.st1{fill:#007396;}
	.st2{fill:#800000;}
	.st3{fill:#585858;}
</style>
<path d="M63.6,26.5h428.3V28H63.6L63.6,26.5z"/>
<path class="st0" d="M42.1,53.1c-1.2-6.4-5.9-10.8-11.3-14.6C35.5,45,40.1,53,35,60.9c-7.9,11.5-30.4,34.5-8,43
	C10.7,85.8,45.3,71.9,42.1,53.1"/>
<path class="st1" d="M34.8,53.1L27.7,50l-1.3,1.5l-0.3,0.4l8.3,3.6l0.2-1.5C34.8,53.7,34.8,53.4,34.8,53.1 M32.8,59.9l-8.9-3.8
	l-0.1,0.2L23.3,58l-0.1,0.5l8.1,3.5l0.6-0.8L32.8,59.9 M23.3,63.8L23.3,63.8l0.6,2.9l2.9,1.3l1.5-2L23.3,63.8z M35,85.3
	c-0.3-1-0.6-2-1.1-3.1L31.1,81l-1.4,2L35,85.3z M35.8,93.4c0.1-0.8,0.2-1.7,0.1-2.6L27.1,87L26,89.2L35.8,93.4z M25.4,96.9l7.6,3.3
	l0.6-0.9l0.6-1.1l-9.3-4C25,95,25.1,96,25.4,96.9"/>
<path class="st2" d="M68.3,3.5h-4.9V0.3h13.3v3.2h-4.9v12.8h-3.5V3.5z M80.2,0.3h3.5v6.3h6.5V0.3h3.5v16h-3.5V9.8h-6.5v6.5h-3.5V0.3
	z M98.4,0.3h12v3.1h-8.5v3.2h7.5v3.2h-7.5v3.3h8.7v3.2H98.4V0.3z M121.9,9.4V0.3h3.5v9.1c0,2.6,1.3,4,3.5,4c2.1,0,3.5-1.3,3.5-3.8
	V0.4h3.5v9c0,4.8-2.7,7.2-7,7.2C124.5,16.5,121.9,14.1,121.9,9.4 M140.2,0.3h3.3l7.5,9.8V0.3h3.5v16h-3l-7.8-10.2v10.2h-3.5V0.3z
	 M159.3,0.3h3.5v16h-3.5V0.3z M166.2,0.3h3.9l4.2,11.2l4.2-11.2h3.8l-6.5,16.1h-3.1L166.2,0.3z M185.5,0.3h12.1v3.1H189v3.2h7.6v3.2
	H189v3.3h8.7v3.2h-12.2V0.3z M201.6,0.3h7.3c2,0,3.6,0.6,4.7,1.6c1,1,1.5,2.3,1.4,3.7c0.1,2.2-1.3,4.3-3.4,5l3.9,5.7h-4.1l-3.4-5.1
	h-2.8v5.1h-3.5L201.6,0.3L201.6,0.3z M208.7,8c1.7,0,2.7-0.9,2.7-2.3c0-1.5-1.1-2.3-2.8-2.3h-3.5V8H208.7z M217.9,13.9l2.1-2.5
	c1.3,1.2,3,1.9,4.8,1.9c1.4,0,2.3-0.6,2.3-1.5s-0.5-1.3-3.2-2c-3.2-0.8-5.3-1.7-5.3-4.9c0-2.9,2.3-4.8,5.6-4.8c2.3,0,4.3,0.7,5.9,2
	l-1.8,2.7c-1.4-1-2.8-1.6-4.2-1.6S222,3.8,222,4.6c0,1.1,0.7,1.4,3.5,2.1c3.2,0.8,5.1,2,5.1,4.8c0,3.2-2.4,5-5.9,5
	C222.2,16.5,219.8,15.6,217.9,13.9 M234.6,0.3h3.5v16h-3.5V0.3z M246.6,3.5h-4.9V0.3H255v3.2h-4.9v12.8h-3.5L246.6,3.5z M263,9.9
	l-6.1-9.6h4.1l3.8,6.4l3.9-6.4h4l-6.2,9.6v6.4H263L263,9.9z M282.6,8.3c0-4.6,3.6-8.3,8.5-8.3s8.5,3.7,8.5,8.2
	c0,4.6-3.6,8.3-8.5,8.3S282.6,12.9,282.6,8.3 M296,8.3c0-2.8-2-5.1-4.8-5.1s-4.8,2.2-4.8,5c0,2.7,2,5,4.8,5C294,13.3,296,11,296,8.3
	 M303.6,0.3h12.2v3.2h-8.7v3.4h7.6v3.2h-7.6v6.2h-3.5V0.3z M326.3,8.3c0-4.6,3.4-8.3,8.3-8.3c3,0,4.8,1,6.3,2.5l-2.2,2.6
	c-1.1-1.1-2.6-1.8-4.1-1.8c-2.7,0-4.6,2.2-4.6,5c0,2.7,1.9,5,4.6,5c1.8,0,2.9-0.7,4.2-1.9l2.2,2.3c-1.6,2-4.1,3-6.6,2.9
	C329.9,16.6,326.2,12.8,326.3,8.3C326.3,8.3,326.3,8.3,326.3,8.3 M344.7,0.3h3.5v6.3h6.5V0.3h3.5v16h-3.5V9.8h-6.5v6.5h-3.5V0.3z
	 M363,0.3h3.5v16H363V0.3z M370.6,8.3c0-4.6,3.4-8.3,8.3-8.3c3,0,4.8,1,6.3,2.5L383,5.1c-1.1-1.1-2.6-1.8-4.1-1.8
	c-2.7,0-4.6,2.2-4.6,5c0,2.7,1.9,5,4.6,5c1.8,0,2.9-0.7,4.2-1.9l2.2,2.3c-1.6,2-4.1,3-6.6,2.9C374.2,16.6,370.5,12.8,370.6,8.3
	C370.6,8.3,370.6,8.3,370.6,8.3 M394.5,0.1h3.2l6.9,16.1h-3.7l-1.5-3.6h-6.7l-1.5,3.6h-3.5L394.5,0.1z M398.2,9.6l-2.1-5.2L394,9.6
	H398.2z M406.2,8.3c0-4.6,3.5-8.3,8.4-8.3c2.3-0.1,4.6,0.7,6.3,2.2l-2.2,2.7c-1.1-1.1-2.6-1.6-4.2-1.6c-2.6,0-4.6,2.3-4.6,5
	c0,2.9,2,5.1,4.8,5.1c1.3,0,2.4-0.3,3.3-1v-2.3h-3.5v-3h7v7c-1.9,1.6-4.3,2.5-6.8,2.5C409.6,16.5,406.2,13,406.2,8.3 M424.9,8.3
	c0-4.6,3.6-8.3,8.5-8.3s8.5,3.7,8.5,8.2c0,4.6-3.6,8.3-8.5,8.3C428.4,16.5,424.9,12.9,424.9,8.3 M438.2,8.3c0-2.8-2-5.1-4.8-5.1
	s-4.8,2.2-4.8,5c0,2.7,2,5,4.8,5C436.2,13.3,438.2,11,438.2,8.3"/>
<path class="st3" d="M63.2,38.2h6.5l7.1,11.5l7.1-11.5h6.4v27.1h-5.9V47.6l-7.6,11.6h-0.2l-7.5-11.4v17.5h-5.9L63.2,38.2z
	 M106.2,38.1h5.5l11.6,27.3h-6.2l-2.5-6.1h-11.5l-2.5,6.1h-6.1L106.2,38.1z M112.5,54l-3.6-8.8l-3.6,8.8H112.5z M127.6,38.2H140
	c3.4,0,6.1,1,7.9,2.7c1.6,1.7,2.4,3.9,2.3,6.2v0.1c0,4.4-2.4,7.1-5.8,8.4l6.6,9.7h-7l-5.8-8.7h-4.7v8.7h-6L127.6,38.2L127.6,38.2z
	 M139.6,51.4c2.9,0,4.6-1.5,4.6-3.8v-0.1c0-2.6-1.8-3.9-4.7-3.9h-5.9v7.8H139.6z M156.2,38.2h6v27.1h-6V38.2z M169.3,38.2h5.5
	l12.7,16.7V38.2h5.9v27.1h-5.1l-13.1-17.2v17.2h-5.9L169.3,38.2z M200.4,38.2h20.5v5.3h-14.5V49h12.7v5.3h-12.7V60h14.7v5.3h-20.7
	V38.2z M239.1,38.2h12.6c3.1,0,5.5,0.9,7.1,2.4c1.2,1.2,1.9,2.9,1.9,4.6v0.1c0.1,2.5-1.3,4.8-3.6,5.8c3.1,1.2,5.1,3,5.1,6.7v0.1
	c0,5-4,7.4-10.1,7.4h-12.9L239.1,38.2L239.1,38.2z M254.7,46.3c0-1.8-1.4-2.8-3.9-2.8h-5.9v5.7h5.5
	C253.1,49.2,254.7,48.3,254.7,46.3L254.7,46.3z M251.8,54.1h-6.9v6h7.1c2.6,0,4.2-0.9,4.2-2.9v-0.1
	C256.2,55.3,254.9,54.1,251.8,54.1 M267.9,38.2h6v27.1h-6V38.2z M278.8,51.9c-0.1-7.7,6.2-14,13.9-14.1c0.2,0,0.3,0,0.5,0
	c8.4,0,14.4,6.2,14.4,13.9v0.1c0,7.7-6.3,14-14,14c-0.1,0-0.3,0-0.4,0C284.8,65.8,278.8,59.6,278.8,51.9 M301.3,51.9
	c0-4.7-3.4-8.6-8.2-8.6s-8.1,3.8-8.1,8.4v0.1c0,4.6,3.4,8.5,8.2,8.5S301.3,56.5,301.3,51.9 M312.4,38.2h6v21.7h13.5v5.4h-19.5V38.2z
	 M334.7,51.9c-0.1-7.7,6.2-14,13.9-14.1c0.2,0,0.3,0,0.5,0c8.4,0,14.4,6.2,14.4,13.9v0.1c0,7.7-6.3,14-14,14c-0.1,0-0.3,0-0.4,0
	C340.7,65.8,334.7,59.6,334.7,51.9 M357.2,51.9c0-4.7-3.4-8.6-8.2-8.6s-8.1,3.8-8.1,8.4v0.1c0,4.6,3.4,8.5,8.2,8.5
	S357.2,56.5,357.2,51.9 M367.7,51.9c-0.1-7.7,6.2-14,13.9-14.1c0.1,0,0.2,0,0.3,0c4.9,0,7.8,1.3,10.6,3.7l-3.8,4.5
	c-1.9-1.8-4.5-2.8-7.1-2.7c-4.3,0-7.8,3.8-7.8,8.4v0.1c0,5,3.4,8.6,8.2,8.6c2.2,0,4.1-0.5,5.6-1.6v-3.9h-6v-5.2h11.8v11.8
	c-3.2,2.8-7.3,4.3-11.6,4.3C373.5,65.8,367.7,59.9,367.7,51.9 M400.1,38.2h6v27.1h-6V38.2z M411.8,51.9c0-7.8,5.8-14.1,14.1-14.1
	c4-0.2,7.9,1.3,10.7,4.2l-3.8,4.4c-2.1-1.9-4.2-3.1-6.9-3.1c-4.6,0-7.9,3.8-7.9,8.4v0.1c0,4.6,3.2,8.5,7.9,8.5c3.1,0,5-1.2,7.1-3.2
	l3.8,3.8c-2.8,3-5.9,4.8-11.1,4.8C417.7,65.8,411.8,59.6,411.8,51.9 M451,38.1h5.5l11.6,27.3h-6.2l-2.5-6.1h-11.5l-2.5,6.1h-6.1
	L451,38.1z M457.3,54l-3.6-8.8l-3.6,8.8H457.3z M472.4,38.2h6v21.7h13.5v5.4h-19.5V38.2z M63.2,76.9h6v21.7h13.5v5.4H63.2V76.9z
	 M97.6,76.7h5.5l11.6,27.3h-6.2l-2.5-6.1H94.5L92,104h-6.1L97.6,76.7z M103.9,92.7l-3.6-8.8l-3.6,8.8H103.9z M119,76.9h12.6
	c3.1,0,5.5,0.9,7.1,2.4c1.2,1.2,1.9,2.9,1.9,4.6V84c0.1,2.5-1.3,4.8-3.6,5.8c3.1,1.2,5.1,3,5.1,6.7v0.1c0,5-4,7.4-10.1,7.4h-12.9
	L119,76.9L119,76.9z M134.6,84.9c0-1.8-1.4-2.8-3.9-2.8h-5.9v5.7h5.5C132.9,87.9,134.6,87,134.6,84.9z M131.7,92.8h-6.9v6h7.1
	c2.6,0,4.2-0.9,4.2-2.9v-0.1C136.1,94,134.8,92.8,131.7,92.8 M146,90.6c-0.1-7.7,6.2-14,13.9-14.1c0.2,0,0.3,0,0.5,0
	c8.4,0,14.4,6.2,14.4,13.9v0.1c0,7.7-6.3,14-14,14c-0.1,0-0.3,0-0.4,0C152,104.5,146,98.3,146,90.6 M168.5,90.6
	c0-4.7-3.4-8.6-8.2-8.6s-8.1,3.8-8.1,8.4v0.1c0,4.6,3.4,8.5,8.2,8.5S168.5,95.2,168.5,90.6 M179.6,76.9H192c3.4,0,6.1,1,7.9,2.7
	c1.6,1.7,2.4,3.9,2.3,6.2v0.1c0,4.4-2.4,7.1-5.8,8.4l6.6,9.7h-7l-5.8-8.7h-4.7v8.7h-6V76.9L179.6,76.9z M191.6,90.1
	c2.9,0,4.6-1.5,4.6-3.8v-0.1c0-2.6-1.8-3.9-4.7-3.9h-5.9v7.8H191.6z M218,76.7h5.5l11.6,27.3h-6.2l-2.5-6.1h-11.5l-2.5,6.1h-6.1
	L218,76.7z M224.3,92.7l-3.6-8.8l-3.6,8.8H224.3z M242.3,82.4h-8.2v-5.5h22.4v5.5h-8.2V104h-6V82.4z M259.3,90.6
	c-0.1-7.7,6.2-14,13.9-14.1c0.2,0,0.3,0,0.5,0c8.4,0,14.4,6.2,14.4,13.9v0.1c0,7.7-6.3,14-14,14c-0.1,0-0.3,0-0.4,0
	C265.3,104.5,259.3,98.3,259.3,90.6 M281.8,90.6c0-4.7-3.4-8.6-8.2-8.6s-8.1,3.8-8.1,8.4v0.1c0,4.6,3.4,8.5,8.2,8.5
	S281.8,95.2,281.8,90.6 M292.9,76.9h12.4c3.4,0,6.1,1,7.9,2.7c1.6,1.7,2.4,3.9,2.3,6.2v0.1c0,4.4-2.4,7.1-5.8,8.4l6.6,9.7h-7
	l-5.8-8.7h-4.7v8.7h-6V76.9L292.9,76.9z M304.9,90.1c2.9,0,4.6-1.5,4.6-3.8v-0.1c0-2.6-1.8-3.9-4.7-3.9h-5.9v7.8H304.9z M327.7,93.3
	l-10.4-16.4h7l6.4,10.9l6.6-10.9h6.8l-10.4,16.3V104h-6V93.3z"/>
<path class="st1" d="M42.6,14.6c-2.6-0.9-5.2,2.7-5.5,3.2c2.4,6.3,1.9,13.3-1.2,19.2c-2.8,5-8.4,8.3-11.8,12.7l-1.3,1.8
	c-0.7,1.1-1.3,2.4-1.8,3.7l-0.6,2.1c-0.5,2.3-0.6,4.8-0.1,7.1c0.4,2.3,1.1,4.9,2.3,7.8c0,0-16.2-12.4-9.2-32
	c2.6-7.2,8.7-11.6,9.1-14.8v-0.8c0-1.4-0.6-2.7-2.4-2.7c-1.7,0-1.7,0.6-4.8,1.7C11.5,25,4,27.1,0,25.5L0.3,23c0,0,9.7-0.3,12.2-6.4
	c1.5-3.8,3.6-7.4,7.4-8.6c0,0-0.4-6.7,4.7-7.9c-1.9,3.9,1.8,7.2,1.8,7.2c5,0.3,5.9-5,11.8-2.3c-2,0.4-5.4,3.7-3.1,6.7
	C37.3,11.8,40.9,12.2,42.6,14.6z"/>
</svg>
