<svg xmlns="http://www.w3.org/2000/svg" width="2560" height="2560" viewBox="0 0 2560 2560">
  <polygon points="960 507.239 1053.505 622.321 1156 467.679 960 507.239" fill="#5c5ce5"/>
  <polygon points="1466.723 661.693 1507.817 764.101 1584.814 656.959 1466.723 661.693" fill="#5c5ce5"/>
  <polygon points="808.5 700.5 848.5 752.5 882.5 712.5 808.5 700.5" fill="#5c5ce5"/>
  <polygon points="1727.594 225 1785.752 403 1914.406 290.208 1727.594 225" fill="#5c5ce5"/>
  <polygon points="713.804 283 774.57 357.5 798.5 293.5 713.804 283" fill="#5c5ce5"/>
  <polygon points="1419 361 1492.101 356.982 1429.5 452.5 1419 361" fill="#5c5ce5"/>
  <polygon points="2192.158 703.906 2085.5 541.282 1958.877 756.709 2192.158 703.906" fill="#5c5ce5"/>
  <polygon points="587 601 366.247 614.518 444.716 451.575 587 601" fill="#5c5ce5"/>
  <polygon points="1169 879 1191 1059 1405 995 1169 879" fill="#5c5ce5"/>
  <polygon points="1183 1747 1221 1950 1381 1861 1183 1747" fill="#5c5ce5"/>
  <polygon points="640.433 940.214 717 967 674.098 866.63 640.433 940.214" fill="#5c5ce5"/>
  <polygon points="1743 923.904 1803 871.904 1725 827.904 1743 923.904" fill="#5c5ce5"/>
  <polygon points="961 1121 1015 1319 841 1311 961 1121" fill="#5c5ce5"/>
  <polygon points="307 1066 376 1261 505 1165 307 1066" fill="#5c5ce5"/>
  <polygon points="550 1492 631 1534 631 1471 550 1492" fill="#5c5ce5"/>
  <polygon points="855 1675 922 1819 673 1789 855 1675" fill="#5c5ce5"/>
  <polygon points="1318 1231 1339 1345 1447 1246 1318 1231" fill="#5c5ce5"/>
  <polygon points="2090.562 1060 1969 1210 2221 1267 2090.562 1060" fill="#5c5ce5"/>
  <polygon points="1666 1183 1687 1267 1738 1204 1666 1183" fill="#5c5ce5"/>
  <path d="M1420,1489l111,135,180-141S1414,1486,1420,1489Z" fill="#5c5ce5"/>
  <polygon points="1966 1531 1993 1615 2038 1555 1966 1531" fill="#5c5ce5"/>
  <polygon points="1048 1474 1039 1540 1135 1513 1048 1474" fill="#5c5ce5"/>
  <polygon points="1690 1813 1774 1783 1711 1750 1690 1813" fill="#5c5ce5"/>
</svg>
