<svg xmlns="http://www.w3.org/2000/svg" width="2560" height="1440" viewBox="0 0 2560 1440">
  <polygon points="960 507.239 1053.505 622.321 1156 467.679 960 507.239" fill="#5c5ce5"/>
  <polygon points="1466.723 661.693 1507.817 764.101 1584.814 656.959 1466.723 661.693" fill="#5c5ce5"/>
  <polygon points="808.5 700.5 848.5 752.5 882.5 712.5 808.5 700.5" fill="#5c5ce5"/>
  <polygon points="1727.594 225 1785.752 403 1914.406 290.208 1727.594 225" fill="#5c5ce5"/>
  <polygon points="713.804 283 774.57 357.5 798.5 293.5 713.804 283" fill="#5c5ce5"/>
  <polygon points="1419 361 1492.101 356.982 1429.5 452.5 1419 361" fill="#5c5ce5"/>
  <polygon points="2192.158 703.906 2085.5 541.282 1958.877 756.709 2192.158 703.906" fill="#5c5ce5"/>
  <polygon points="587 601 366.247 614.518 444.716 451.575 587 601" fill="#5c5ce5"/>
  <polygon points="1169 879 1191 1059 1405 995 1169 879" fill="#5c5ce5"/>
  <polygon points="640.433 940.214 717 967 674.098 866.63 640.433 940.214" fill="#5c5ce5"/>
  <polygon points="1743 923.904 1803 871.904 1725 827.904 1743 923.904" fill="#5c5ce5"/>
</svg>
