<svg xmlns="http://www.w3.org/2000/svg" xmlns:xlink="http://www.w3.org/1999/xlink" width="64" height="64" viewBox="0 0 64 64">
  <defs>
    <clipPath id="a">
      <circle cx="32" cy="32" r="32" fill="#b6f8ff"/>
    </clipPath>
  </defs>
  <g>
    <circle cx="32" cy="32" r="32" fill="#b6f8ff"/>
    <g clip-path="url(#a)">
      <g>
        <circle cx="42.5" cy="17" r="7" fill="#fff"/>
        <circle cx="33.75" cy="17" r="5.25" fill="#fff"/>
        <rect x="25" y="17" width="28" height="7" rx="3.5" fill="#fff"/>
      </g>
      <rect x="23" y="41" width="18" height="23" fill="#faf7f7"/>
      <rect x="8" y="45" width="15" height="19" fill="#ffd9d9"/>
      <rect x="41" y="45" width="15" height="19" fill="#ffd9d9"/>
      <rect x="23" y="39" width="18" height="2" fill="#7373ff"/>
      <polygon points="23 41 10 41 8 45 23 45 23 41" fill="#7373ff"/>
      <polygon points="54 41 41 41 41 45 56 45 54 41" fill="#7373ff"/>
      <polygon points="23 39 32 35 41 39 23 39" fill="#7373ff"/>
      <path d="M32,54h0a2,2,0,0,1,2,2v8a0,0,0,0,1,0,0H30a0,0,0,0,1,0,0V56A2,2,0,0,1,32,54Z" fill="#ff8d8d"/>
      <rect x="11" y="48" width="3" height="4" fill="#7373ff"/>
      <rect x="17" y="48" width="3" height="4" fill="#7373ff"/>
      <rect x="44" y="48" width="3" height="4" fill="#7373ff"/>
      <rect x="50" y="48" width="3" height="4" fill="#7373ff"/>
    </g>
  </g>
</svg>
