<svg xmlns="http://www.w3.org/2000/svg" xmlns:xlink="http://www.w3.org/1999/xlink" width="64" height="64" viewBox="0 0 64 64">
  <defs>
    <clipPath id="a">
      <path d="M32,0A31.994,31.994,0,0,0,.016,31.383l28.452-6.5L3.97,47.44A32,32,0,1,0,32,0Z" fill="#b6f8ff"/>
    </clipPath>
  </defs>
  <g>
    <path d="M32,0A31.994,31.994,0,0,0,.016,31.383l28.452-6.5L3.97,47.44A32,32,0,1,0,32,0Z" fill="#b6f8ff"/>
    <g clip-path="url(#a)">
      <rect width="64" height="64" fill="none"/>
      <polygon points="51.862 39.551 32.31 44.018 38.127 52.199 51.862 39.551" fill="#ff8d8d"/>
      <polygon points="31.354 31.309 24.302 32.92 26.4 35.871 31.354 31.309" fill="#ff8d8d"/>
      <polygon points="14.218 21.095 7.167 22.706 9.265 25.657 14.218 21.095" fill="#80d8ff"/>
      <polygon points="31.788 38.417 15.302 42.184 20.206 49.082 31.788 38.417" fill="#80d8ff"/>
      <polygon points="0 50.342 0 60.943 15.311 46.844 0 50.342" fill="#fff" opacity="0.5"/>
      <polygon points="16.938 64 32.311 49.844 5.667 55.932 5.667 64 16.938 64" fill="#fff" opacity="0.5"/>
    </g>
  </g>
  <polygon points="63.12 6.606 26.268 15.026 37.231 30.445 63.12 6.606" fill="#7373ff"/>
</svg>
