<svg xmlns="http://www.w3.org/2000/svg" width="1920" height="886" viewBox="0 0 1920 886">
  <polygon points="1123.228 183 1130 194.005 1113.069 194.005 1123.228 183" fill="#5c5ce5" opacity="0.25"/>
  <polygon points="1470 728.702 1474.947 740 1460.049 740.317 1470 728.702" fill="#5c5ce5" opacity="0.25"/>
  <polygon points="373.955 405.045 380 418 361 417.136 373.955 405.045" fill="#5c5ce5" opacity="0.25"/>
  <polygon points="1257.375 658 1263 668.083 1248 669 1257.375 658" fill="#5c5ce5" opacity="0.25"/>
  <polygon points="1527.48 432.747 1533.667 443.573 1514.333 446.667 1527.48 432.747" fill="#5c5ce5" opacity="0.25"/>
  <polygon points="1550.765 79.333 1556.725 89.765 1540.333 92 1550.765 79.333" fill="#5c5ce5" opacity="0.25"/>
  <polygon points="472.473 805 480 818.172 462.123 819.113 472.473 805" fill="#5c5ce5" opacity="0.25"/>
  <polygon points="272.907 706.163 279 717.9 260.349 718.163 272.907 706.163" fill="#5c5ce5" opacity="0.25"/>
  <polygon points="170.732 301.208 184.543 289.731 190.252 300.778 170.732 301.208" fill="#5c5ce5" opacity="0.25"/>
  <polygon points="1789.25 513.25 1779 526 1795.75 523.25 1789.25 513.25" fill="#5c5ce5" opacity="0.25"/>
</svg>
