<svg xmlns="http://www.w3.org/2000/svg" width="244" height="45" viewBox="0 0 244 45">
  <g>
    <g>
      <rect width="22.209" height="22.103" fill="#c12118"/>
      <path d="M16.351,18.405a1.207,1.207,0,0,0,1.132.474c.168,0,.37-.013.609-.036.415-.042.64-.067.677-.076l.282-.035.027.943A9,9,0,0,1,17.3,19.9a1.926,1.926,0,0,1-1.8-.764,4.946,4.946,0,0,1-.454-2.461,4.786,4.786,0,0,1,.485-2.5,1.964,1.964,0,0,1,1.773-.743,6.591,6.591,0,0,1,.8.056,4.953,4.953,0,0,1,.71.122l.274.064-.035.912a12.893,12.893,0,0,0-1.6-.133,1.191,1.191,0,0,0-1.1.465,3.75,3.75,0,0,0-.278,1.753A3.8,3.8,0,0,0,16.351,18.405Z" fill="#fff"/>
      <rect x="23.446" width="21.679" height="22.103" fill="#c12118"/>
      <polygon points="41.795 19.55 40.766 19.55 40.766 16.881 38.173 16.881 38.173 19.55 37.142 19.55 37.142 13.29 38.173 13.29 38.173 15.86 40.766 15.86 40.766 13.29 41.795 13.29 41.795 19.55" fill="#fff"/>
      <rect y="23.32" width="22.209" height="21.68" fill="#c12118"/>
      <polygon points="18.998 41.977 17.387 41.977 15.341 37.037 15.159 37.037 15.159 41.977 14.13 41.977 14.13 35.716 15.903 35.716 17.883 40.636 17.97 40.636 17.97 35.716 18.998 35.716 18.998 41.977" fill="#fff"/>
      <rect x="23.446" y="23.32" width="21.679" height="21.68" fill="#c12118"/>
      <polygon points="41.84 42.027 40.812 42.027 40.812 37.087 40.707 37.087 39.3 41.774 38.224 41.774 36.809 37.087 36.645 37.087 36.645 42.027 35.614 42.027 35.614 35.766 37.343 35.766 38.761 40.524 40.183 35.766 41.84 35.766 41.84 42.027" fill="#fff"/>
    </g>
    <g>
      <path d="M52.152,21.181V9.635h4.269a4.15,4.15,0,0,1,2.9.88,3.734,3.734,0,0,1,.927,2.835,3.444,3.444,0,0,1-1.658,3.324l1.658,4.507H58.1l-1.425-3.927H54.05v3.927Zm1.9-5.81h2.441q1.854,0,1.862-1.971a1.674,1.674,0,0,0-1.9-1.883H54.05Z" fill="#fff"/>
      <path d="M61.808,16.971a5.1,5.1,0,0,1,.857-3.214,3.439,3.439,0,0,1,2.871-1.107,3.326,3.326,0,0,1,2.846,1.168,5.148,5.148,0,0,1,.857,3.153,5.484,5.484,0,0,1-.841,3.208,3.289,3.289,0,0,1-2.862,1.19,3.413,3.413,0,0,1-2.884-1.106A5.374,5.374,0,0,1,61.808,16.971Zm1.9,0a3.751,3.751,0,0,0,.372,1.933,1.6,1.6,0,0,0,1.458.582,1.569,1.569,0,0,0,1.436-.582,3.779,3.779,0,0,0,.368-1.933,3.4,3.4,0,0,0-.4-1.856,1.58,1.58,0,0,0-1.4-.583A1.64,1.64,0,0,0,64.1,15.1,3.337,3.337,0,0,0,63.706,16.971Z" fill="#fff"/>
      <path d="M70.168,12.854h1.878l1.72,6.479.465.009,1.7-6.488h1.878l-3.116,11.88H72.816l.933-3.555-1.413,0Z" fill="#fff"/>
      <path d="M83.2,21.181V9.635h4.27a4.149,4.149,0,0,1,2.9.88A3.734,3.734,0,0,1,91.3,13.35a3.446,3.446,0,0,1-1.658,3.324L91.3,21.181H89.144L87.72,17.254H85.1v3.927Zm1.9-5.81h2.44q1.854,0,1.862-1.971A1.674,1.674,0,0,0,87.5,11.517H85.1Z" fill="#fff"/>
      <path d="M92.853,16.971a5.1,5.1,0,0,1,.857-3.214,3.442,3.442,0,0,1,2.871-1.107,3.327,3.327,0,0,1,2.847,1.168,5.154,5.154,0,0,1,.857,3.153,5.484,5.484,0,0,1-.841,3.208,3.291,3.291,0,0,1-2.863,1.19A3.411,3.411,0,0,1,93.7,20.263,5.367,5.367,0,0,1,92.853,16.971Zm1.9,0a3.751,3.751,0,0,0,.372,1.933,1.6,1.6,0,0,0,1.457.582,1.571,1.571,0,0,0,1.437-.582,3.779,3.779,0,0,0,.368-1.933,3.4,3.4,0,0,0-.4-1.856,1.582,1.582,0,0,0-1.405-.583,1.642,1.642,0,0,0-1.437.568A3.338,3.338,0,0,0,94.752,16.971Z" fill="#fff"/>
      <path d="M101.825,15.4a2.421,2.421,0,0,1,.9-2.069,3.635,3.635,0,0,1,2.246-.678,13.139,13.139,0,0,1,3.182.538l-.041,1.613a23.54,23.54,0,0,0-3-.269,2.268,2.268,0,0,0-1.07.179.692.692,0,0,0-.32.64.507.507,0,0,0,.336.512,8.286,8.286,0,0,0,1.405.3,5.079,5.079,0,0,1,2.3.772,2.022,2.022,0,0,1,.636,1.659q0,2.777-3.321,2.777a8.648,8.648,0,0,1-1.3-.1q-1.05-.142-1.3-.2l-.512-.115.064-1.724a25.522,25.522,0,0,0,2.87.251,2.876,2.876,0,0,0,1.253-.19.686.686,0,0,0,.352-.658.556.556,0,0,0-.3-.535,5.907,5.907,0,0,0-1.306-.313,5.83,5.83,0,0,1-2.386-.75A1.894,1.894,0,0,1,101.825,15.4Z" fill="#fff"/>
      <path d="M109.884,17.107q0-4.456,3.605-4.457,3.565,0,3.574,3.8l-.139,1.369h-5.142a1.718,1.718,0,0,0,.442,1.258,2.122,2.122,0,0,0,1.438.4q1.325,0,3.081-.141l.033,1.582a15.909,15.909,0,0,1-3.388.442,3.241,3.241,0,0,1-2.685-1.023A5.172,5.172,0,0,1,109.884,17.107Zm1.9-.766h3.382a2.051,2.051,0,0,0-.384-1.394,2.195,2.195,0,0,0-2.589.015A1.97,1.97,0,0,0,111.782,16.341Z" fill="#fff"/>
      <path d="M118.9,21.181V12.854h1.9v.438a5.249,5.249,0,0,1,2.232-.642,2.494,2.494,0,0,1,2.283.97,6.208,6.208,0,0,1,.618,3.2v4.359h-1.9V16.9a4.5,4.5,0,0,0-.26-1.817,1.109,1.109,0,0,0-1.108-.555,4.059,4.059,0,0,0-.8.1,6.4,6.4,0,0,0-.766.177l-.3.1v6.271Z" fill="#fff"/>
      <path d="M128,21.181V19.525l3.824-4.8h-3.9V12.837h6.271v1.787l-3.7,4.675h3.887v1.882Z" fill="#fff"/>
      <path d="M135.266,12.854h1.888l1.233,6.445h.367L140.18,13h2.078l1.389,6.3h.477l1.358-6.445h1.762L145.5,21.181h-3.041l-1.222-5.575-1.258,5.575h-3.1Z" fill="#fff"/>
      <path d="M148.181,17.107q0-4.456,3.606-4.457,3.565,0,3.573,3.8l-.138,1.369H150.08a1.722,1.722,0,0,0,.441,1.258,2.127,2.127,0,0,0,1.439.4q1.323,0,3.081-.141l.033,1.582a15.91,15.91,0,0,1-3.389.442A3.241,3.241,0,0,1,149,20.346,5.172,5.172,0,0,1,148.181,17.107Zm1.9-.766h3.382a2.045,2.045,0,0,0-.385-1.394,2.193,2.193,0,0,0-2.588.015A1.97,1.97,0,0,0,150.08,16.341Z" fill="#fff"/>
      <path d="M157.153,11.362V9.48h1.9v1.882Zm0,9.819V12.854h1.9v8.327Z" fill="#fff"/>
      <path d="M160.877,22.567a1.752,1.752,0,0,1,.3-1.033,3.975,3.975,0,0,1,.925-.907,1.289,1.289,0,0,1-.647-1.214,2.787,2.787,0,0,1,.734-1.32,2.731,2.731,0,0,1-1.214-2.5,2.6,2.6,0,0,1,.915-2.2,3.928,3.928,0,0,1,2.436-.717,6.708,6.708,0,0,1,.746.049q.25.033.68.114l.267.049,2.517-.049v1.548h-1.159a1.967,1.967,0,0,1,.353,1.206,2.7,2.7,0,0,1-.822,2.286,4.4,4.4,0,0,1-2.614.615,3.385,3.385,0,0,1-.736-.065,2.342,2.342,0,0,0-.2.75.5.5,0,0,0,.3.5,5.328,5.328,0,0,0,1.454.114,5.116,5.116,0,0,1,2.731.523,2.144,2.144,0,0,1,.743,1.91,2.558,2.558,0,0,1-1.059,2.244,4.861,4.861,0,0,1-2.8.717,5.717,5.717,0,0,1-2.918-.559A2.229,2.229,0,0,1,160.877,22.567Zm2-6.976a1.336,1.336,0,0,0,.318,1,1.614,1.614,0,0,0,1.1.3,1.827,1.827,0,0,0,1.169-.285,1.276,1.276,0,0,0,.368-1.019,1.211,1.211,0,0,0-.352-1,1.913,1.913,0,0,0-1.169-.285,1.619,1.619,0,0,0-1.1.285A1.3,1.3,0,0,0,162.873,15.591Zm0,6.8a.709.709,0,0,0,.427.7,3.474,3.474,0,0,0,1.443.217q1.944,0,1.944-.981,0-.57-.336-.712a4.308,4.308,0,0,0-1.388-.165l-1.625-.106A1.52,1.52,0,0,0,162.873,22.387Z" fill="#fff"/>
      <path d="M173.7,15.42a8.808,8.808,0,0,1,.9-4.6,3.609,3.609,0,0,1,3.267-1.368,11.923,11.923,0,0,1,1.475.1,9.283,9.283,0,0,1,1.312.224l.5.119-.065,1.683a23.348,23.348,0,0,0-2.958-.247,2.2,2.2,0,0,0-2.02.856,6.881,6.881,0,0,0-.514,3.234,6.972,6.972,0,0,0,.514,3.194,2.22,2.22,0,0,0,2.086.872c.309,0,.684-.021,1.124-.066q1.149-.114,1.247-.139l.521-.066.049,1.739a16.789,16.789,0,0,1-3.276.415q-2.487,0-3.33-1.41A9.175,9.175,0,0,1,173.7,15.42Z" fill="#fff"/>
      <path d="M182.544,17.107q0-4.456,3.6-4.457,3.566,0,3.573,3.8l-.138,1.369h-5.142a1.718,1.718,0,0,0,.442,1.258,2.122,2.122,0,0,0,1.438.4q1.325,0,3.081-.141l.033,1.582a15.91,15.91,0,0,1-3.389.442,3.24,3.24,0,0,1-2.684-1.023A5.172,5.172,0,0,1,182.544,17.107Zm1.9-.766h3.382a2.051,2.051,0,0,0-.384-1.394,2.195,2.195,0,0,0-2.589.015A1.97,1.97,0,0,0,184.442,16.341Z" fill="#fff"/>
      <path d="M191.556,21.181V12.854h1.9v.438a5.257,5.257,0,0,1,2.233-.642,2.494,2.494,0,0,1,2.283.97,6.208,6.208,0,0,1,.618,3.2v4.359h-1.9V16.9a4.486,4.486,0,0,0-.26-1.817,1.109,1.109,0,0,0-1.109-.555,4.058,4.058,0,0,0-.8.1,6.4,6.4,0,0,0-.766.177l-.3.1v6.271Z" fill="#fff"/>
      <path d="M200.006,14.736V12.854h1.051V10.6h1.9v2.258h2.257v1.882h-2.257v3.256a3.225,3.225,0,0,0,.138,1.207c.1.2.342.3.734.3l1.352-.049.082,1.638a7.934,7.934,0,0,1-1.7.293,2.423,2.423,0,0,1-1.972-.652,3.946,3.946,0,0,1-.53-2.41V14.736Z" fill="#fff"/>
      <path d="M206.24,17.107q0-4.456,3.6-4.457,3.566,0,3.573,3.8l-.138,1.369h-5.142a1.718,1.718,0,0,0,.441,1.258,2.127,2.127,0,0,0,1.439.4q1.323,0,3.081-.141l.033,1.582a15.91,15.91,0,0,1-3.389.442,3.241,3.241,0,0,1-2.685-1.023A5.179,5.179,0,0,1,206.24,17.107Zm1.9-.766h3.382a2.045,2.045,0,0,0-.385-1.394,2.193,2.193,0,0,0-2.588.015A1.97,1.97,0,0,0,208.138,16.341Z" fill="#fff"/>
      <path d="M215.252,21.181V12.854h1.9v.813a6.424,6.424,0,0,1,2.518-1.017v1.882a8.279,8.279,0,0,0-2.518.893v5.756Z" fill="#fff"/>
      <path d="M51.215,34.205V32.323h.953v-.536a4.441,4.441,0,0,1,.513-2.547,2.21,2.21,0,0,1,1.858-.7l1.817.2-.016,1.719q-1.068-.033-1.32-.033a.844.844,0,0,0-.754.3,2.136,2.136,0,0,0-.2,1.1v.5h2.152v1.882H54.066v6.446h-1.9V34.205Z" fill="#fff"/>
      <path d="M57.187,36.441a5.108,5.108,0,0,1,.857-3.215,3.445,3.445,0,0,1,2.871-1.107,3.325,3.325,0,0,1,2.847,1.169,5.148,5.148,0,0,1,.857,3.153,5.486,5.486,0,0,1-.841,3.208,3.293,3.293,0,0,1-2.863,1.189,3.414,3.414,0,0,1-2.883-1.105A5.377,5.377,0,0,1,57.187,36.441Zm1.9,0a3.75,3.75,0,0,0,.372,1.932,1.6,1.6,0,0,0,1.457.583,1.569,1.569,0,0,0,1.437-.583,3.777,3.777,0,0,0,.368-1.932,3.4,3.4,0,0,0-.4-1.857A1.584,1.584,0,0,0,60.915,34a1.642,1.642,0,0,0-1.437.567A3.342,3.342,0,0,0,59.086,36.441Z" fill="#fff"/>
      <path d="M66.566,40.651V32.323h1.9v.813a6.424,6.424,0,0,1,2.518-1.017V34a8.243,8.243,0,0,0-2.518.893v5.756Z" fill="#fff"/>
      <path d="M76.491,40.651V29.1h1.9v4.743h4.783V29.1h1.9V40.651h-1.9V35.729H78.39v4.922Z" fill="#fff"/>
      <path d="M87.63,30.832V28.95h1.9v1.882Zm0,9.819V32.323h1.9v8.328Z" fill="#fff"/>
      <path d="M91.533,34.867a2.423,2.423,0,0,1,.9-2.069,3.633,3.633,0,0,1,2.247-.679,13.189,13.189,0,0,1,3.182.538l-.041,1.614a23.353,23.353,0,0,0-3-.269,2.256,2.256,0,0,0-1.07.179.691.691,0,0,0-.319.64.506.506,0,0,0,.335.511,8.168,8.168,0,0,0,1.406.3,5.062,5.062,0,0,1,2.3.772,2.02,2.02,0,0,1,.636,1.659q0,2.776-3.32,2.776a8.66,8.66,0,0,1-1.3-.1c-.7-.095-1.134-.161-1.3-.2l-.512-.115.064-1.724a25.311,25.311,0,0,0,2.869.252,2.877,2.877,0,0,0,1.254-.191.685.685,0,0,0,.351-.658.555.555,0,0,0-.3-.534,5.858,5.858,0,0,0-1.307-.314,5.859,5.859,0,0,1-2.386-.749A1.9,1.9,0,0,1,91.533,34.867Z" fill="#fff"/>
      <path d="M99.242,34.205V32.323h1.051V30.066h1.9v2.257h2.258v1.882h-2.258v3.256a3.228,3.228,0,0,0,.139,1.208q.147.3.733.3l1.353-.049.081,1.638a7.851,7.851,0,0,1-1.7.293,2.426,2.426,0,0,1-1.971-.651,3.949,3.949,0,0,1-.53-2.411V34.205Z" fill="#fff"/>
      <path d="M105.475,36.441a5.108,5.108,0,0,1,.857-3.215,3.445,3.445,0,0,1,2.871-1.107,3.325,3.325,0,0,1,2.847,1.169,5.148,5.148,0,0,1,.857,3.153,5.486,5.486,0,0,1-.841,3.208,3.293,3.293,0,0,1-2.863,1.189,3.414,3.414,0,0,1-2.883-1.105A5.371,5.371,0,0,1,105.475,36.441Zm1.9,0a3.739,3.739,0,0,0,.372,1.932,1.6,1.6,0,0,0,1.457.583,1.569,1.569,0,0,0,1.437-.583,3.777,3.777,0,0,0,.368-1.932,3.4,3.4,0,0,0-.4-1.857A1.584,1.584,0,0,0,109.2,34a1.642,1.642,0,0,0-1.437.567A3.342,3.342,0,0,0,107.374,36.441Z" fill="#fff"/>
      <path d="M114.854,40.651V32.323h1.9v.813a6.417,6.417,0,0,1,2.518-1.017V34a8.243,8.243,0,0,0-2.518.893v5.756Z" fill="#fff"/>
      <path d="M119.809,32.323h1.878l1.719,6.479.466.009,1.7-6.488h1.878L124.335,44.2h-1.878l.933-3.555-1.414,0Z" fill="#fff"/>
      <path d="M132.268,38.174a2.316,2.316,0,0,1,.684-1.859,3.607,3.607,0,0,1,2.089-.694l2.067-.161v-.483a.887.887,0,0,0-.287-.714A1.1,1.1,0,0,0,136.07,34q-.556,0-1.356.049c-.147.01-.59.032-1.326.065l-.526.032-.063-1.613a19.35,19.35,0,0,1,3.372-.416,2.924,2.924,0,0,1,2.129.677,2.994,2.994,0,0,1,.706,2.185v3.4a1.169,1.169,0,0,0,.163.6,1.011,1.011,0,0,0,.514.235l-.066,1.621a5.206,5.206,0,0,1-1.366-.138,2.435,2.435,0,0,1-.859-.448,7.313,7.313,0,0,1-2.727.586,2.223,2.223,0,0,1-1.767-.7A2.864,2.864,0,0,1,132.268,38.174Zm1.9-.086q0,1.113.85,1.112a8.178,8.178,0,0,0,2.092-.341V36.891l-1.821.1Q134.166,37.094,134.166,38.088Z" fill="#fff"/>
      <path d="M141.549,40.651V32.323h1.9v.439a5.257,5.257,0,0,1,2.233-.643,2.5,2.5,0,0,1,2.283.97,6.22,6.22,0,0,1,.618,3.2v4.36h-1.9V36.374a4.487,4.487,0,0,0-.261-1.818A1.107,1.107,0,0,0,145.313,34a4.124,4.124,0,0,0-.8.1,6.4,6.4,0,0,0-.766.177l-.3.1v6.272Z" fill="#fff"/>
      <path d="M150.349,36.452a5.278,5.278,0,0,1,.841-3.292,3.114,3.114,0,0,1,2.6-1.041,8.428,8.428,0,0,1,1.87.239V28.966h1.9V40.651h-1.9v-.426a4.857,4.857,0,0,1-2.173.613,2.77,2.77,0,0,1-2.4-1.013A5.889,5.889,0,0,1,150.349,36.452Zm1.9.015a3.56,3.56,0,0,0,.376,1.923,1.34,1.34,0,0,0,1.168.566,7.2,7.2,0,0,0,1.87-.349V34.149l-.033-.008a.938.938,0,0,0-.106-.015,1.364,1.364,0,0,0-.164-.008l-.7-.078c-.179-.02-.425-.033-.735-.038a1.446,1.446,0,0,0-1.27.573A3.373,3.373,0,0,0,152.248,36.467Z" fill="#fff"/>
      <path d="M164,40.651V29.1h3.27l3.652,9.075h.159V29.1h1.9V40.651H170l-3.773-9.11H165.9v9.11Z" fill="#fff"/>
      <path d="M175.006,36.577q0-4.458,3.606-4.458,3.566,0,3.573,3.806l-.138,1.369h-5.142a1.713,1.713,0,0,0,.441,1.257,2.132,2.132,0,0,0,1.439.405q1.323,0,3.081-.142L181.9,40.4a15.846,15.846,0,0,1-3.389.442,3.243,3.243,0,0,1-2.685-1.022A5.174,5.174,0,0,1,175.006,36.577Zm1.9-.766h3.382a2.042,2.042,0,0,0-.385-1.394,2.2,2.2,0,0,0-2.588.014A1.971,1.971,0,0,0,176.905,35.811Z" fill="#fff"/>
      <path d="M183.065,32.323h1.888l1.233,6.445h.367l1.426-6.3h2.078l1.389,6.3h.477l1.358-6.445h1.762L193.3,40.651H190.26l-1.222-5.575-1.258,5.575h-3.1Z" fill="#fff"/>
      <path d="M200.5,40.651V29.1h3.186l2.616,8.776,2.624-8.776h3.055V40.651h-1.9v-9.11l-.193,0L207.3,40.184h-1.984l-2.61-8.644h-.3v9.111Z" fill="#fff"/>
      <path d="M214.029,36.577q0-4.458,3.606-4.458,3.566,0,3.573,3.806l-.138,1.369h-5.142a1.713,1.713,0,0,0,.441,1.257,2.132,2.132,0,0,0,1.439.405q1.323,0,3.081-.142l.033,1.582a15.846,15.846,0,0,1-3.389.442,3.243,3.243,0,0,1-2.685-1.022A5.174,5.174,0,0,1,214.029,36.577Zm1.9-.766h3.382a2.042,2.042,0,0,0-.385-1.394,2.2,2.2,0,0,0-2.588.014A1.971,1.971,0,0,0,215.928,35.811Z" fill="#fff"/>
      <path d="M222.471,36.452a5.278,5.278,0,0,1,.841-3.292,3.116,3.116,0,0,1,2.6-1.041,8.428,8.428,0,0,1,1.87.239V28.966h1.9V40.651h-1.9v-.426a4.857,4.857,0,0,1-2.173.613,2.77,2.77,0,0,1-2.4-1.013A5.889,5.889,0,0,1,222.471,36.452Zm1.9.015a3.56,3.56,0,0,0,.376,1.923,1.34,1.34,0,0,0,1.168.566,7.2,7.2,0,0,0,1.87-.349V34.149l-.033-.008a.948.948,0,0,0-.105-.015,1.381,1.381,0,0,0-.165-.008l-.7-.078c-.179-.02-.425-.033-.735-.038a1.445,1.445,0,0,0-1.269.573A3.363,3.363,0,0,0,224.37,36.467Z" fill="#fff"/>
      <path d="M232.127,30.832V28.95h1.9v1.882Zm0,9.819V32.323h1.9v8.328Z" fill="#fff"/>
      <path d="M235.916,38.174a2.313,2.313,0,0,1,.685-1.859,3.607,3.607,0,0,1,2.089-.694l2.066-.161v-.483a.889.889,0,0,0-.286-.714,1.1,1.1,0,0,0-.751-.261q-.556,0-1.357.049-.22.015-1.325.065l-.526.032-.064-1.613a19.361,19.361,0,0,1,3.372-.416,2.925,2.925,0,0,1,2.13.677,3,3,0,0,1,.706,2.185v3.4a1.169,1.169,0,0,0,.163.6,1.011,1.011,0,0,0,.513.235l-.065,1.621A5.2,5.2,0,0,1,241.9,40.7a2.438,2.438,0,0,1-.86-.448,7.305,7.305,0,0,1-2.727.586,2.224,2.224,0,0,1-1.767-.7A2.864,2.864,0,0,1,235.916,38.174Zm1.9-.086c0,.742.282,1.112.85,1.112a8.172,8.172,0,0,0,2.091-.341V36.891l-1.821.1Q237.814,37.094,237.815,38.088Z" fill="#fff"/>
    </g>
  </g>
</svg>
