<svg xmlns="http://www.w3.org/2000/svg" width="218" height="42" viewBox="0 0 218 42">
  <g>
    <path d="M10.341,5.443a17.122,17.122,0,0,1,16.739.78,4.568,4.568,0,1,0,2.282-2.847A20.772,20.772,0,0,0,.616,9.427Q.294,9.921,0,10.433l25.69,25.69a17.228,17.228,0,0,1-16.739-.781A4.566,4.566,0,1,0,6.67,38.19a20.793,20.793,0,0,0,28.77-6.083q.311-.477.595-.971Zm19.883.718a1.707,1.707,0,1,1,0,2.414h0a1.7,1.7,0,0,1-.016-2.4ZM5.807,35.4a1.706,1.706,0,1,1,0-2.413,1.705,1.705,0,0,1,0,2.413ZM30.153,32.92a16.953,16.953,0,0,1-1.352,1.2L4.678,10a16.573,16.573,0,0,1,1.2-1.355A17.323,17.323,0,0,1,7.224,7.437L31.353,31.566A16.581,16.581,0,0,1,30.153,32.92Z" fill="#ad976e"/>
    <path d="M62.52,17.577q-1.119-.056-2.239-.052c-.872,0-1.556,0-2.069.052v-.086c.495-.171.632-.393.632-.735a3.034,3.034,0,0,0-.256-1.06c-.17-.41-.342-.855-.547-1.333H53.22c-.137.358-.291.7-.427,1.042a4.053,4.053,0,0,0-.36,1.3.731.731,0,0,0,.65.786v.086c-.65-.052-1.419-.052-1.983-.052q-.906,0-1.812.052v-.086c.581-.24.837-.5,1.521-2.034,3.009-6.651,3.693-8.19,4.48-10.088h1.487c.5,1.369,1.744,4.309,4.394,10.412.512,1.18.718,1.488,1.35,1.71Zm-5.026-4.583c-.53-1.282-1.129-2.769-1.847-4.5-.649,1.573-1.264,3.077-1.863,4.5Zm10.8,2.121c0,.7.274.991,1.334.991,1.966,0,2.582-.41,3.419-1.812l.085.051a26.163,26.163,0,0,0-.632,3.248q-2.367-.069-4.735-.068c-.89,0-2.274.017-3.044.052v-.086c.958-.325,1.112-.564,1.112-3.71V9.319c0-3.146-.154-3.385-1.112-3.693V5.54c.77.035,1.454.052,2.342.052s1.59-.017,2.428-.052v.086c-1.06.307-1.2.461-1.2,3.283Zm12.224,2.462q-1.212-.052-2.427-.052c-.89,0-1.573.017-2.343.052v-.086c.958-.325,1.111-.564,1.111-3.71V9.319c0-3.146-.153-3.385-1.111-3.693V5.54c.77.035,1.744.052,2.633.052,2.411,0,3.864-.035,5.368-.12a25.617,25.617,0,0,0,.069,3.06l-.086.018c-.5-1.266-1.094-1.557-3.214-1.557a8.1,8.1,0,0,0-1.2.052v3.847l1.607-.052c1.59-.068,1.914-.239,2.171-.94h.1a15.2,15.2,0,0,0-.069,1.625,13.456,13.456,0,0,0,.069,1.606h-.1c-.257-.718-.6-.871-2.171-.923l-1.608-.051v2.034c0,2.821.138,2.975,1.2,3.3Zm10.976,0q-1.222-.052-2.446-.052c-.889,0-1.555.017-2.325.052v-.086c.958-.325,1.111-.564,1.111-3.71V9.319c0-3.146-.153-3.385-1.111-3.693V5.54c.77.035,1.351.052,2.24.052.615,0,1.538-.069,2.581-.069,3.249,0,4.907,1.3,4.907,3.4a3.247,3.247,0,0,1-2.445,3.06c1.129,2.667,2.822,4.753,4.411,5.471l-.034.1c-2.787-.358-5.351-1.367-6.855-4.923a8.548,8.548,0,0,1-.89.05h-.359v1.506c0,2.735.154,2.974,1.214,3.3Zm-1.215-6.1H91c1.658,0,2.872-.65,2.872-2.274,0-1.5-.993-2.256-2.787-2.256a6.969,6.969,0,0,0-.8.05Zm17.746,6.12c-1.574-.051-3.762-.068-5.13-.068-.906,0-2.016.017-2.786.052v-.086c.957-.325,1.111-.564,1.111-3.71V9.319c0-3.146-.154-3.385-1.111-3.693V5.54c.77.035,1.743.052,2.633.052,2.53,0,3.983-.035,5.539-.12a25.406,25.406,0,0,0,.086,3.06l-.086.018c-.5-1.266-1.112-1.557-3.47-1.557a9.256,9.256,0,0,0-1.129.052v3.59l1.847-.051c1.589-.051,1.9-.222,2.17-.923h.1a14.619,14.619,0,0,0-.068,1.607,14.422,14.422,0,0,0,.068,1.624h-.1c-.274-.735-.616-.889-2.171-.94l-1.847-.034v3.2c0,.7.257.991,1.385.991,1.931,0,2.65-.41,3.487-1.727l.086.052A28.839,28.839,0,0,0,108.028,17.593Zm3.5-.1c.958-.325,1.112-.564,1.112-3.71V9.319c0-3.146-.154-3.385-1.112-3.693V5.54c.77.035,1.436.052,2.052.052.82,0,1.607-.069,2.377-.069a8.207,8.207,0,0,1,6.052,2.086,5.6,5.6,0,0,1,1.573,4.07c0,3.47-2.463,5.966-7.147,5.966-.975,0-1.966-.12-2.855-.12-.65,0-1.282.017-2.052.052Zm8.224-9.078a5.266,5.266,0,0,0-3.779-1.419,4.535,4.535,0,0,0-.871.051v8.086c0,.77.29,1.044,1.658,1.044,2.445,0,4.171-1.488,4.171-4.343A4.7,4.7,0,0,0,119.755,8.413ZM136.5,17.577q-1.214-.052-2.428-.052c-.889,0-1.573.017-2.342.052v-.086c.957-.325,1.111-.564,1.111-3.71V9.319c0-3.146-.154-3.385-1.111-3.693V5.54c.769.035,1.453.052,2.341.052.582,0,1.471-.069,2.377-.069,3.043,0,5.095,1.231,5.095,3.557a3.088,3.088,0,0,1-.906,2.308,6.311,6.311,0,0,1-4.513,1.435h-.821v1.54c0,2.564.137,2.8,1.2,3.128Zm-1.2-6.086h.6a3.456,3.456,0,0,0,2.5-.719,2.158,2.158,0,0,0,.547-1.556c0-1.607-1.094-2.273-2.718-2.273-.359,0-.7.034-.923.05Zm8,6.256a1.379,1.379,0,1,1,.036,0Zm13.738.069a8.235,8.235,0,0,1-3.745-.872,22.846,22.846,0,0,0-.017-3.3l.086-.018a4.362,4.362,0,0,0,3.745,2.718,1.747,1.747,0,0,0,1.906-1.573c.005-.046.007-.091.008-.136,0-.889-.53-1.436-2.342-2.239-2.274-1.044-3.215-2.018-3.215-3.642,0-1.932,1.608-3.454,4.1-3.454a7.443,7.443,0,0,1,3.283.786,20.536,20.536,0,0,0,0,3.078l-.086.017a3.948,3.948,0,0,0-3.3-2.41,1.486,1.486,0,0,0-1.57,1.4c0,.03,0,.059,0,.088,0,.837.444,1.265,2.206,2.051,2.325,1.078,3.35,2.069,3.35,3.779C161.45,16.294,159.673,17.816,157.04,17.816Zm10.906-2.7c0,.7.273.991,1.333.991,1.966,0,2.583-.41,3.42-1.812l.085.051a26.163,26.163,0,0,0-.632,3.248q-2.367-.069-4.736-.068c-.889,0-2.274.017-3.043.052v-.086c.958-.325,1.111-.564,1.111-3.71V9.319c0-3.146-.153-3.385-1.111-3.693V5.54q1.17.054,2.341.052c.891,0,1.591-.017,2.429-.052v.086c-1.06.307-1.2.461-1.2,3.283Zm7.266-3.557a6.26,6.26,0,0,1,6.513-6.274,6.174,6.174,0,0,1,6.446,6.274,6.251,6.251,0,0,1-6.514,6.275,6.183,6.183,0,0,1-6.445-6.275Zm2.666-.154c0,2.787,1.505,4.872,3.882,4.872,2.257,0,3.761-1.965,3.761-4.564,0-2.786-1.5-4.872-3.881-4.872-2.274,0-3.762,1.949-3.762,4.564Zm24.841,6.173q-1.119-.056-2.239-.052c-.872,0-1.556,0-2.069.052v-.086c.5-.171.632-.393.632-.735a3.034,3.034,0,0,0-.256-1.06c-.171-.41-.342-.855-.547-1.333h-4.821c-.137.358-.292.7-.427,1.042a4.053,4.053,0,0,0-.36,1.3.731.731,0,0,0,.65.786v.086c-.65-.052-1.419-.052-1.983-.052-.548,0-1.3.017-1.813.052v-.086c.582-.24.838-.5,1.522-2.034,3.009-6.651,3.693-8.19,4.479-10.088h1.488c.5,1.369,1.744,4.309,4.394,10.412.512,1.18.718,1.488,1.35,1.71Zm-5.026-4.583c-.53-1.282-1.129-2.769-1.847-4.5-.649,1.573-1.265,3.077-1.863,4.5Zm18.343,4.668h-1.351a18.91,18.91,0,0,0-1.538-2.188l-5.283-6.583.017,5.078c0,2.975.171,3.214,1.18,3.522v.086q-1.06-.05-2.121-.052c-.717,0-1.231.017-2.034.052v-.086c.94-.308,1.095-.616,1.095-3.933l.016-4.086c0-3.248-.136-3.521-1.111-3.846V5.54c.753.035,1.231.069,1.983.069a10.028,10.028,0,0,0,1.47-.086c.171.274.513.735.872,1.2.7.906,3.591,4.514,5.044,6.326l-.016-3.932c0-2.975-.172-3.18-1.181-3.488V5.54c.872.035,1.488.052,2.188.052.667,0,1.2-.017,1.966-.052v.086c-.939.307-1.06.582-1.111,4.018ZM54.605,38.091q-1.213-.053-2.428-.051-1.172,0-2.343.051v-.086c.959-.325,1.112-.564,1.112-3.71V29.833c0-3.145-.153-3.386-1.112-3.693v-.085c.77.034,1.744.051,2.633.051,2.411,0,3.864-.035,5.369-.12a25.4,25.4,0,0,0,.068,3.06l-.085.018c-.5-1.266-1.094-1.556-3.214-1.556a8.111,8.111,0,0,0-1.2.051v3.847l1.607-.052c1.59-.068,1.915-.239,2.171-.94h.1a15.187,15.187,0,0,0-.069,1.624,13.7,13.7,0,0,0,.069,1.608h-.1c-.256-.719-.6-.873-2.171-.923l-1.607-.052v2.034c0,2.822.137,2.975,1.2,3.3Zm6.174-6.018A6.26,6.26,0,0,1,67.292,25.8a6.173,6.173,0,0,1,6.445,6.275,6.249,6.249,0,0,1-6.513,6.274A6.183,6.183,0,0,1,60.779,32.073Zm2.666-.154c0,2.786,1.505,4.872,3.881,4.872,2.257,0,3.762-1.966,3.762-4.565,0-2.786-1.5-4.872-3.881-4.872-2.274,0-3.762,1.949-3.762,4.564Zm23.762,1.47c0,2.992-1.555,4.958-5.06,4.958-3.3,0-4.941-1.846-4.941-4.8v-3.71c0-3.145-.154-3.386-1.094-3.693v-.085c.769.034,1.436.051,2.325.051s1.608-.017,2.428-.051v.085c-1.06.307-1.2.445-1.2,3.129v4.085c0,2.189.958,3.13,2.753,3.13,1.845,0,2.889-1.009,2.889-3.249l-.016-3.693c0-2.889-.172-3.1-1.181-3.4v-.085c.873.034,1.539.051,2.257.051.7,0,1.146-.017,1.949-.051v.085c-.923.307-1.094.6-1.094,4.018Zm14.858,4.787h-1.351a18.91,18.91,0,0,0-1.538-2.188l-5.283-6.582.017,5.077c0,2.975.171,3.214,1.18,3.523v.085q-1.061-.048-2.121-.051c-.717,0-1.231.016-2.034.051v-.086c.94-.308,1.094-.615,1.094-3.932l.017-4.086c0-3.248-.136-3.522-1.111-3.847v-.085c.752.034,1.231.068,1.983.068a9.892,9.892,0,0,0,1.47-.086c.171.275.513.736.872,1.2.7.906,3.591,4.513,5.044,6.325l-.016-3.932c0-2.975-.172-3.181-1.181-3.488v-.085c.872.034,1.488.051,2.188.051.667,0,1.2-.017,1.966-.051v.085c-.939.307-1.06.582-1.111,4.018Zm4.38-.171c.958-.325,1.112-.564,1.112-3.71V29.833c0-3.145-.154-3.386-1.112-3.693v-.085c.77.034,1.436.051,2.053.051.82,0,1.606-.069,2.376-.069a8.209,8.209,0,0,1,6.052,2.086,5.6,5.6,0,0,1,1.573,4.069c0,3.471-2.463,5.968-7.147,5.968-.975,0-1.966-.12-2.854-.12-.651,0-1.283.016-2.053.051Zm8.224-9.078a5.261,5.261,0,0,0-3.779-1.419,4.55,4.55,0,0,0-.872.051v8.086c0,.769.292,1.043,1.659,1.043,2.445,0,4.172-1.487,4.172-4.342a4.7,4.7,0,0,0-1.18-3.42Zm18.168,9.164q-1.119-.056-2.239-.051c-.872,0-1.556,0-2.069.051v-.086c.5-.171.632-.394.632-.735a3.057,3.057,0,0,0-.256-1.06c-.17-.41-.342-.855-.547-1.334h-4.821c-.137.359-.291.7-.428,1.043a4.092,4.092,0,0,0-.359,1.3.731.731,0,0,0,.65.786v.086c-.65-.051-1.419-.051-1.983-.051q-.906,0-1.812.051v-.086c.581-.239.838-.5,1.521-2.034,3.009-6.651,3.693-8.19,4.48-10.087h1.487c.5,1.368,1.744,4.308,4.394,10.411.513,1.18.718,1.488,1.35,1.711Zm-5.026-4.583c-.53-1.282-1.129-2.769-1.847-4.5-.649,1.573-1.265,3.078-1.863,4.5Zm14.058,4.583q-1.264-.05-2.53-.051c-.889,0-1.556.016-2.53.051v-.086c1.2-.341,1.3-.444,1.3-3.47V27.456H137.6c-2.188.035-2.94.8-3.521,2.428l-.086-.017a32.271,32.271,0,0,0,.034-3.847c1.556.051,3.266.086,5.317.086s3.779-.035,5.335-.086a32.271,32.271,0,0,0,.034,3.847l-.086.017c-.581-1.624-1.333-2.393-3.522-2.428h-.53v7.079c0,3.026.12,3.129,1.3,3.47Zm8.1-.051c-.889,0-1.607.016-2.359.051v-.086c.991-.325,1.145-.564,1.145-3.71V29.833c0-3.145-.154-3.386-1.145-3.693v-.085c.752.034,1.47.051,2.359.051.871,0,1.573-.017,2.393-.051v.085c-.992.307-1.145.548-1.145,3.693V34.3c0,3.146.153,3.385,1.145,3.71v.086Q151.166,38.039,149.968,38.04Zm5.139-5.967a6.26,6.26,0,0,1,6.514-6.275,6.174,6.174,0,0,1,6.446,6.275,6.251,6.251,0,0,1-6.514,6.274A6.183,6.183,0,0,1,155.107,32.073Zm2.667-.154c0,2.786,1.5,4.872,3.881,4.872,2.257,0,3.761-1.966,3.761-4.565,0-2.786-1.5-4.872-3.88-4.872-2.275,0-3.762,1.949-3.762,4.564Zm24.208,6.257h-1.351a18.918,18.918,0,0,0-1.539-2.188l-5.283-6.582.018,5.077c0,2.975.171,3.214,1.179,3.523v.085q-1.059-.048-2.12-.051c-.717,0-1.231.016-2.034.051v-.086c.94-.308,1.094-.615,1.094-3.932l.016-4.086c0-3.248-.136-3.522-1.11-3.847v-.085c.752.034,1.23.068,1.983.068a9.9,9.9,0,0,0,1.47-.086c.171.275.513.736.872,1.2.7.906,3.591,4.513,5.043,6.325l-.016-3.932c0-2.975-.171-3.181-1.18-3.488v-.085c.872.034,1.487.051,2.188.051.667,0,1.2-.017,1.966-.051v.085c-.94.307-1.06.582-1.111,4.018Z" fill="#fff"/>
  </g>
</svg>
